#!OML:ASF F:\VICON\USERDATA\INSTALL\rory3\rory3.ASF
:FULLY-SPECIFIED
:DEGREES
1
root 0.555215 17.1131 -23.0715 0.214885 -0.261152 1.20021
lowerback 18.3276 -0.904858 -3.24094
upperback 2.3421 -1.94772 -1.36086
thorax -7.68181 -0.86302 0.854195
lowerneck -1.75985 0.560171 -0.783854
upperneck -8.94161 0.806121 0.887788
head -2.52359 0.401647 0.401565
rclavicle -7.45443e-015 -1.27222e-014
rhumerus -48.8671 10.7177 -89.942
rradius 87.0801
rwrist 0.0909493
rhand -38.8943 36.5852
rfingers 7.12502
rthumb -11.9017 6.94349
lclavicle -7.45443e-015 -1.27222e-014
lhumerus -21.2015 -13.4259 87.7024
lradius 111.735
lwrist 32.7859
lhand -30.6837 13.5954
lfingers 7.12502
lthumb -3.97771 43.538
rfemur -27.2187 -4.04515 17.3754
rtibia 111.18
rfoot 4.78836 -2.65325
rtoes -3.06279
lfemur -12.5452 1.09734 -26.2131
ltibia 44.7914
lfoot -20.9105 -1.41364
ltoes -10.7574
2
root 0.558458 17.1345 -22.589 0.246967 -0.315398 1.31366
lowerback 18.0211 -1.0895 -3.08085
upperback 2.79309 -2.14961 -1.6039
thorax -7.03521 -0.983121 0.538626
lowerneck -3.70153 0.626761 -0.294166
upperneck -8.05908 0.894888 0.940387
head -1.88896 0.435874 0.337307
rclavicle 2.16675e-014 2.22639e-014
rhumerus -48.5473 9.78349 -89.7282
rradius 86.9274
rwrist -0.0309313
rhand -39.1735 36.3122
rfingers 7.12502
rthumb -12.171 6.68625
lclavicle 2.16675e-014 2.22639e-014
lhumerus -18.0854 -14.2185 86.8216
lradius 111.936
lwrist 33.1219
lhand -31.0627 13.8434
lfingers 7.12502
lthumb -4.34364 43.7789
rfemur -29.8988 -3.90322 17.3259
rtibia 110.838
rfoot 6.47813 -1.03879
rtoes 5.87093
lfemur -10.2593 1.14972 -26.4623
ltibia 43.9047
lfoot -20.7746 -0.907535
ltoes -13.8963
3
root 0.562942 17.1754 -22.1058 0.143557 -0.182192 1.66501
lowerback 18.0847 -1.40081 -3.32719
upperback 2.91435 -2.61227 -1.71419
thorax -6.91962 -1.20505 0.667817
lowerneck -4.50758 0.820361 -0.0299361
upperneck -7.49389 1.13525 0.835186
head -1.56863 0.553799 0.262356
rclavicle -8.34896e-015 -1.90833e-014
rhumerus -49.0871 9.47698 -89.5307
rradius 87.1692
rwrist -0.199793
rhand -39.5755 36.6222
rfingers 7.12502
rthumb -12.5585 7.01964
lclavicle -8.34896e-015 -1.90833e-014
lhumerus -16.1541 -14.5709 86.4157
lradius 112.126
lwrist 32.9717
lhand -32.3278 11.7849
lfingers 7.12502
lthumb -5.56525 41.6918
rfemur -32.2336 -3.93105 16.9685
rtibia 109.896
rfoot 6.67602 0.536852
rtoes 8.57815
lfemur -7.75518 1.11624 -26.9464
ltibia 42.5392
lfoot -19.9243 -0.635081
ltoes -17.8602
4
root 0.559856 17.2303 -21.6105 -0.0262436 -0.0320114 2.07665
lowerback 18.3469 -1.7279 -3.79723
upperback 2.70816 -3.15328 -1.70785
thorax -7.24128 -1.44572 1.07944
lowerneck -4.42602 0.972847 -0.00884339
upperneck -7.02309 1.32752 0.693411
head -1.43236 0.652198 0.215327
rclavicle -1.71949e-014 -4.77083e-015
rhumerus -50.3008 9.58431 -89.3356
rradius 87.7345
rwrist -0.541813
rhand -39.4975 36.5145
rfingers 7.12502
rthumb -12.4833 6.90735
lclavicle -1.71949e-014 -4.77083e-015
lhumerus -15.1761 -14.4678 86.3191
lradius 112.299
lwrist 32.9929
lhand -32.6622 9.56263
lfingers 7.12502
lthumb -5.88804 39.4608
rfemur -34.1021 -3.86425 16.6232
rtibia 108.527
rfoot 5.42504 1.98503
rtoes 7.18124
lfemur -5.06732 1.16277 -27.3841
ltibia 41.1033
lfoot -18.7465 -0.564097
ltoes -21.5041
5
root 0.546111 17.3034 -21.1075 -0.0965877 0.122338 2.25167
lowerback 18.5224 -2.02543 -4.20611
upperback 2.48736 -3.63164 -1.56372
thorax -7.52052 -1.65371 1.59024
lowerneck -4.36407 1.13422 0.0598672
upperneck -6.63969 1.52618 0.427298
head -1.31943 0.753762 0.122905
rclavicle -6.50026e-014 -4.37326e-015
rhumerus -51.3972 9.59892 -89.0634
rradius 88.2125
rwrist -0.828146
rhand -39.1995 36.6758
rfingers 7.12502
rthumb -12.1961 7.05131
lclavicle -6.50026e-014 -4.37326e-015
lhumerus -14.3401 -14.1507 86.2585
lradius 112.511
lwrist 32.9465
lhand -31.2924 7.11823
lfingers 7.12502
lthumb -4.56552 37.049
rfemur -35.742 -3.7742 16.6671
rtibia 106.662
rfoot 3.21844 2.78243
rtoes -0.239687
lfemur -2.369 1.07738 -27.4662
ltibia 39.439
lfoot -17.1786 -0.602064
ltoes -23.9328
6
root 0.532189 17.4043 -20.585 0.11744 0.270739 2.12252
lowerback 18.2336 -2.37039 -4.22504
upperback 2.28719 -4.06582 -1.3701
thorax -7.54141 -1.85755 1.90231
lowerneck -4.71479 1.3641 0.26536
upperneck -6.06133 1.80709 0.053448
head -1.07511 0.894836 -0.0195869
rclavicle 2.18663e-014 -2.78299e-015
rhumerus -52.3582 9.52786 -88.7748
rradius 88.6594
rwrist -1.19286
rhand -38.9827 36.9052
rfingers 7.12502
rthumb -11.9869 7.26845
lclavicle 2.18663e-014 -2.78299e-015
lhumerus -13.475 -14.1917 86.1478
lradius 112.929
lwrist 32.5741
lhand -31.289 6.43125
lfingers 7.12502
lthumb -4.56224 36.3621
rfemur -37.3015 -3.59306 17.158
rtibia 104.285
rfoot -0.36823 2.7982
rtoes -12.4492
lfemur 0.0571445 0.868472 -27.1717
ltibia 37.6306
lfoot -15.1421 -0.799212
ltoes -25.7579
7
root 0.519717 17.5044 -20.0558 0.451007 0.323512 2.24118
lowerback 17.7595 -2.75617 -4.54077
upperback 1.87316 -4.61104 -1.16404
thorax -7.65742 -2.10029 2.41233
lowerneck -4.18913 1.72756 0.253926
upperneck -5.81578 2.28006 -0.329461
head -1.08075 1.13528 -0.136008
rclavicle 4.67144e-015 2.38542e-015
rhumerus -53.7757 9.89753 -88.5515
rradius 89.1887
rwrist -1.65552
rhand -38.9634 36.6305
rfingers 7.12502
rthumb -11.9684 6.99268
lclavicle 4.67144e-015 2.38542e-015
lhumerus -13.3661 -14.1453 86.2682
lradius 113.803
lwrist 32.8068
lhand -31.7858 8.50067
lfingers 7.12502
lthumb -5.0419 38.4207
rfemur -38.9402 -3.3781 17.3289
rtibia 101.618
rfoot -0.371494 3.17767
rtoes -10.5142
lfemur 2.32083 0.649615 -27.1258
ltibia 35.7061
lfoot -12.6107 -1.36639
ltoes -26.5468
